<svg width="101" height="120" viewBox="0 0 101 120" fill="none" xmlns="http://www.w3.org/2000/svg">
<path fill-rule="evenodd" clip-rule="evenodd" d="M36.9661 1.05587C36.6662 1.56096 34.5954 2.94545 32.3643 4.13242C24.59 8.26695 20.6175 14.3975 19.5418 23.9212C19.2116 26.848 18.4913 29.092 17.7935 29.3707C17.1096 29.644 16.6069 31.1494 16.6069 32.9244C16.6069 35.246 17.0342 36.1209 18.3404 36.4763C19.3217 36.7433 20.074 37.7065 20.074 38.696C20.074 39.6584 20.8065 41.1339 21.701 41.9773C22.6519 42.872 23.5646 45.3632 23.8966 47.9716C24.2095 50.4258 25.8183 55.1331 27.4704 58.4324C29.1233 61.7317 30.4755 64.8985 30.4755 65.4685C30.4755 66.0385 28.2323 67.589 25.4915 68.913C12.9126 74.9904 3.48276 87.1234 0.610217 100.93L0 103.861H28.6735H57.3461V101.606C57.3461 100.366 57.0531 99.3989 56.696 99.4575C56.3389 99.5171 44.6372 99.5171 30.6922 99.4575C10.1276 99.3709 5.33857 99.1229 5.33857 98.1425C5.33857 97.4778 6.52694 94.458 7.97968 91.4329C11.3047 84.5095 18.3751 77.0937 25.3277 73.2379L30.694 70.2615L32.828 73.099C35.7682 77.008 39.1304 78.6063 44.4153 78.6063C48.5776 78.6063 49.1896 78.3113 52.7798 74.5755L56.6535 70.5447L60.2507 72.4505C62.2287 73.4995 65.1359 75.3782 66.7109 76.6256C69.2887 78.6685 69.7083 78.756 70.9088 77.5077C72.1093 76.2585 71.9524 75.8905 69.3451 73.826C67.751 72.565 64.3749 70.4518 61.8413 69.1304C59.3076 67.8091 57.0427 66.2063 56.8078 65.5677C56.572 64.93 57.3296 62.9512 58.4911 61.1707C59.6517 59.3903 61.2605 55.1782 62.0658 51.8094C62.8719 48.4415 64.0888 44.6705 64.771 43.4303C65.4532 42.1901 66.4873 40.0597 67.0697 38.6951C67.6522 37.3304 68.8215 36.2147 69.671 36.2147C71.981 36.2147 71.825 30.3043 69.4812 28.9991C68.2165 28.2947 67.7476 27.1105 67.7476 24.6184C67.7476 15.4104 62.3362 7.57335 52.7096 2.84083C47.0373 0.0520039 38.1605 -0.954571 36.9661 1.05587ZM46.9446 9.41423C46.9446 14.4823 47.1283 15.083 48.6782 15.083C50.1699 15.083 50.4117 14.4823 50.4117 10.7671C50.4117 8.39322 50.67 6.45042 50.9856 6.45042C51.3011 6.45042 53.2409 7.47594 55.297 8.72965C60.3564 11.8152 63.444 17.456 64.0446 24.7149C64.3012 27.8149 64.8967 30.8599 65.3682 31.4795C66.0495 32.3751 61.7884 32.6069 44.6389 32.6069H23.0515L23.3817 26.0678C23.7848 18.1207 25.8945 13.6236 31.1932 9.42415C33.2562 7.78892 35.3036 6.45042 35.7439 6.45042C36.1834 6.45042 36.5431 8.39322 36.5431 10.7671C36.5431 14.4823 36.7849 15.083 38.2767 15.083C39.8265 15.083 40.0102 14.4823 40.0102 9.41423V3.74458H43.4774H46.9446V9.41423ZM64.2804 37.0508C64.2804 37.5117 63.3677 38.6346 62.2521 39.5483C60.6555 40.8543 60.1224 42.3714 59.748 46.6692C58.6133 59.687 50.3043 66.3632 39.0819 63.275C31.9161 61.3033 27.0084 53.6241 27.0084 44.3855C27.0084 42.1351 26.484 40.8174 25.2748 40.0318C24.3213 39.4121 23.5412 38.3 23.5412 37.5604C23.5412 36.4059 26.4337 36.2147 43.9108 36.2147C55.85 36.2147 64.2804 36.5611 64.2804 37.0508ZM53.0112 67.6476C53.0121 68.3178 51.6859 70.2452 50.065 71.9319C47.7048 74.3879 46.434 74.9985 43.6811 74.9985C39.6757 74.9985 36.2484 72.5921 35.0167 68.9158L34.1837 66.43H43.597C50.9223 66.43 53.0112 66.7006 53.0112 67.6476ZM80.7867 82.564C79.757 85.3808 78.104 85.5937 76.6079 83.1016C75.5773 81.3852 75.3684 81.3626 72.8746 82.7047C70.601 83.9287 70.3081 84.4834 70.7744 86.6923C71.4106 89.7057 70.2223 90.8079 67.7952 89.4558C66.3174 88.6333 65.8718 88.9038 64.6479 91.3652C63.268 94.1423 63.2862 94.2831 65.2261 95.8055C66.9319 97.144 67.0594 97.5896 66.0816 98.8154C65.4515 99.6064 64.3974 100.253 63.7413 100.253C62.4974 100.253 62.1654 102.68 63.073 105.14C63.3625 105.925 64.4997 106.567 65.6014 106.567C68.0804 106.567 68.7149 108.227 67.179 110.693C66.144 112.355 66.2567 112.804 68.1922 114.695C69.873 116.338 70.6063 116.58 71.3994 115.755C73.2699 113.808 75.4144 114.51 75.7082 117.165C75.9379 119.244 76.4476 119.691 78.8651 119.933C81.1491 120.161 81.8416 119.846 82.2005 118.416C82.854 115.816 84.8381 115.368 86.2718 117.498C87.4385 119.231 87.6569 119.254 90.1437 117.917C92.2032 116.808 92.7432 115.956 92.615 114.013C92.4711 111.824 92.7363 111.548 94.84 111.698C96.7071 111.831 97.5262 111.269 98.5915 109.126C99.8804 106.532 99.857 106.313 98.1529 105.071C95.7736 103.337 95.8793 102.199 98.5187 101.155C100.762 100.267 101.027 99.4169 100.14 95.9688C99.7877 94.6023 98.9582 93.9394 97.6016 93.9394C94.9302 93.9394 94.0781 92.3114 95.8074 90.5111C97.0893 89.1771 97.0148 88.856 94.8877 86.5461C92.7277 84.2002 92.4685 84.1298 91.0114 85.5026C89.0611 87.339 86.7633 85.7813 87.4411 83.0827C87.7219 81.9642 87.4498 81.3076 86.7017 81.2995C86.0499 81.2932 84.6466 81.0443 83.5821 80.7475C82.054 80.3218 81.4663 80.7033 80.7867 82.564ZM85.0834 84.8162C85.0834 85.7515 86.0915 87.2037 87.3241 88.0434C89.3593 89.4315 89.7008 89.4423 91.0625 88.1597C92.2093 87.0801 92.8005 86.9971 93.578 87.8062C94.3555 88.6152 94.2757 89.2303 93.2382 90.4236C92.0056 91.8406 92.016 92.1959 93.35 94.3137C94.157 95.5963 95.5525 96.6453 96.4514 96.6453C98.6296 96.6453 98.5499 99.0147 96.3517 99.6127C94.1535 100.211 93.9264 105.172 96.0397 106.403C98.0445 107.571 96.61 109.536 94.2116 108.909C91.6996 108.253 89.0368 111.114 89.8083 113.642C90.5416 116.046 88.5896 117.193 87.1802 115.188C85.685 113.061 81.1118 114.046 80.4617 116.634C79.8697 118.988 77.6949 118.282 77.7798 115.764C77.8665 113.212 73.5655 111.224 71.6109 112.913C69.5748 114.671 67.7458 112.495 69.6199 110.545C71.4826 108.607 69.8417 104.941 66.9475 104.577C64.0533 104.212 63.7907 102.578 66.4249 101.33C68.962 100.127 69.3251 97.154 67.2292 94.7439C65.519 92.7777 66.2801 91.239 68.6438 91.8821C71.1324 92.5594 73.9191 89.7237 73.2976 87.1468C72.6467 84.45 74.0934 83.65 75.8876 85.7136C77.668 87.7611 81.3449 87.2307 82.08 84.8207C82.7543 82.6091 85.0834 82.6064 85.0834 84.8162ZM77.7157 90.6951C71.9784 93.3297 69.8547 99.2528 72.5366 105.134C75.0702 110.689 80.6333 112.502 86.4027 109.654C93.8831 105.96 93.3041 94.1099 85.4769 90.7068C81.9196 89.1609 81.0589 89.1591 77.7157 90.6951ZM86.5578 93.4911C89.0724 95.3239 90.5737 100.245 89.5084 103.162C88.3703 106.277 84.4767 109.273 81.566 109.273C78.4516 109.273 74.0986 105.453 73.3904 102.098C72.7689 99.1554 74.6403 94.5798 77.0656 93.1096C79.3218 91.7423 84.4403 91.9479 86.5578 93.4911Z" fill="#E28103"/>
</svg>
