<svg width="140" height="120" viewBox="0 0 140 120" fill="none" xmlns="http://www.w3.org/2000/svg">
<path fill-rule="evenodd" clip-rule="evenodd" d="M55.2473 61.033V64.3136H57.2168H59.1863V61.033V57.7523H57.2168H55.2473V61.033ZM63.6177 61.033V64.3239L65.5174 64.2778L67.4173 64.2316L67.4264 61.033L67.4354 57.8344L65.5265 57.7881L63.6177 57.742V61.033ZM71.897 57.9626C71.8527 58.0783 71.8364 59.5362 71.8612 61.2022L71.906 64.2316L73.8345 64.2778L75.7629 64.3239V61.0382V57.7523H73.8704C72.4824 57.7523 71.9562 57.8084 71.897 57.9626ZM89.5495 66.774V68.7424H98.4943H107.439V66.774V64.8057H98.4943H89.5495V66.774ZM55.2473 75.637V78.9227L57.1758 78.8766L59.1042 78.8303L59.1487 75.5907L59.1932 72.3511H57.2202H55.2473V75.637ZM63.6177 75.637V78.9227L65.5125 78.8766L67.4075 78.8303L67.441 75.5907L67.4746 72.3511H65.5462H63.6177V75.637ZM71.897 72.5614C71.8527 72.677 71.8364 74.1349 71.8612 75.801L71.906 78.8303L73.8345 78.8766L75.7629 78.9227V75.637V72.3511H73.8704C72.4824 72.3511 71.9562 72.4072 71.897 72.5614ZM89.5495 80.8807H98.4943H107.439V78.9123V76.944H98.4943H89.5495V78.9123V80.8807ZM38.5065 82.7671V85.6376L40.435 85.6378L42.3635 85.6379L42.3151 82.7672L42.2668 79.8965H40.3866H38.5065V82.7671ZM121.7 80.0195C121.69 80.0873 121.671 81.3789 121.659 82.8897L121.636 85.6369L123.564 85.6373L125.493 85.6376V82.7671V79.8965H123.605C122.567 79.8965 121.71 79.9518 121.7 80.0195ZM55.2475 90.1895L55.2478 93.4291L57.1759 93.4117L59.1042 93.3943L59.1487 90.1721L59.1932 86.9498H57.2202H55.2473L55.2475 90.1895ZM63.6183 90.1895L63.619 93.4291H65.5069H67.3949L67.4347 90.1893L67.4746 86.9497H65.5462L63.6177 86.9498L63.6183 90.1895ZM71.8737 90.1849L71.906 93.4199L72.2753 93.4017C72.4783 93.3917 73.3462 93.3753 74.2038 93.3653L75.7629 93.3471V90.1485V86.9498H73.8021H71.8413L71.8737 90.1849ZM89.5495 90.8866V92.855H98.4943H107.439V90.8866V88.9182H98.4943H89.5495V90.8866ZM121.684 95.7257L121.636 98.5964L123.564 98.5962L125.493 98.596V95.7255V92.855H123.613H121.733L121.684 95.7257ZM89.5495 103.025V104.993H98.4943H107.439V103.025V101.057H98.4943H89.5495V103.025ZM55.2473 104.747V107.946H57.2168H59.1863V104.747V101.549H57.2168H55.2473V104.747ZM63.6177 104.747V107.946H65.5462H67.4746V104.747V101.549H65.5462H63.6177V104.747ZM71.8239 104.747V107.946H73.7934H75.7629V104.747V101.549H73.7934H71.8239V104.747ZM38.5438 108.693L38.5886 111.573L40.3584 111.611C41.3318 111.632 42.1811 111.609 42.2458 111.561C42.3105 111.512 42.3535 111.362 42.3413 111.226C42.3292 111.091 42.3108 109.818 42.3003 108.397L42.2814 105.813H40.3902H38.499L38.5438 108.693ZM121.704 108.315C121.697 109.691 121.672 110.979 121.65 111.179C121.607 111.564 121.762 111.673 122.292 111.635C122.473 111.621 123.267 111.598 124.057 111.583L125.493 111.554V108.684V105.813H123.605H121.718L121.704 108.315Z" fill="#E28103"/>
<path d="M38.5065 95.7255V98.596L41.3582 98.5964L42.3635 98.5967V92.8574H40.1888L38.5065 92.855V95.7255Z" fill="#E28103"/>
<path d="M89.5495 56.7682H98.4943H107.439V54.7958V52.8237L98.8179 52.8358H89.5495V56.7682Z" fill="#E28103"/>
<path d="M89.5495 42.6615V44.6299L95.9093 44.6225L107.357 44.6299V42.6615V40.6933L105.292 40.6931H97.4209H89.5495V42.6615Z" fill="#E28103"/>
<path fill-rule="evenodd" clip-rule="evenodd" d="M81.0646 6.07981C80.7729 6.20645 80.3854 6.55419 80.2034 6.8524C79.8755 7.39009 79.8725 7.61761 79.872 32.6243C79.8717 47.3938 79.9321 57.8161 80.0179 57.7632L79.8714 89.4006V116.065H65.3463H50.8212V82.7671V49.4688H63.5409H76.2606V47.503V45.5373L71.7882 45.4937C67.9533 45.4563 67.3127 45.4149 67.2936 45.204C67.2815 45.0686 67.2631 42.0533 67.2526 38.5033L67.2337 32.0487L66.6757 31.491C66.1994 31.015 66.0048 30.9333 65.3463 30.9333C64.6878 30.9333 64.4932 31.015 64.0169 31.491L63.4589 32.0487V38.7904V45.532H55.1705H46.8822V68.4636C46.8822 85.3517 46.9313 91.4441 47.0685 91.5813C47.2075 91.7202 47.2075 91.9552 47.0685 92.5069C46.9383 93.0233 46.8822 96.688 46.8822 104.656V116.065H40.2351H33.5881L33.5807 109.832L33.5793 108.67C33.5769 106.714 33.5753 105.399 33.5744 104.085C33.5727 101.392 33.5744 98.6989 33.5793 90.4941L33.5793 90.4824L33.5793 90.4752L33.5807 88.1007L33.5881 75.3908L38.2246 75.3473L42.8611 75.3036L42.9074 73.3763L42.9535 71.4489H36.3014H29.6491V87.0537V102.658L29.6491 106.148C29.6491 106.722 29.6606 106.886 29.6606 107.132C29.6606 107.132 29.6535 107.818 29.6514 111.924L29.6491 116.065H24.2695V120H81.8409H139.326V116.084L134.033 116.065V93.7571V71.4489H127.478H120.923L120.815 72.1666C120.756 72.5612 120.735 73.4285 120.768 74.0939L120.829 75.3036L125.461 75.3473L130.094 75.3908V95.7281V116.065H123.447H116.8V75.6235C116.8 40.503 116.768 35.1208 116.56 34.7191C116.428 34.4645 114.6 32.8162 112.498 31.0561C109.161 28.262 103.778 23.7313 101.031 21.4036C100.12 20.6315 92.351 14.1045 88.8162 11.1413C87.733 10.2332 85.9973 8.7714 84.9592 7.89285C83.1987 6.40263 82.3135 5.82753 81.8051 5.84295C81.6894 5.84656 81.356 5.95302 81.0646 6.07981ZM105.211 30.0311C101.015 26.5127 95.8224 22.1576 93.6713 20.3533C91.5201 18.549 88.4215 15.9433 86.7853 14.563L83.8104 12.0533L83.8079 34.9849L83.8104 88.3441V116.065H98.3354H112.861L112.85 76.2468L112.84 36.4283L105.211 30.0311Z" fill="#E28103"/>
<path fill-rule="evenodd" clip-rule="evenodd" d="M89.5495 42.6615V44.6299L95.9093 44.6225L107.357 44.6299V42.6615V40.6933L105.292 40.6931H97.4209H89.5495V42.6615ZM89.5495 56.7682H98.4943H107.439V54.7958V52.8237L98.8179 52.8358H89.5495V56.7682ZM89.5495 66.774V68.7424H98.4943H107.439V66.774V64.8057H98.4943H89.5495V66.774ZM89.5495 78.9123V80.8807H98.4943H107.439V78.9123V76.944H98.4943H89.5495V78.9123ZM89.5495 90.8866V92.855H98.4943H107.439V90.8866V88.9182H98.4943H89.5495V90.8866ZM89.5495 103.025V104.993H98.4943H107.439V103.025V101.057H98.4943H89.5495V103.025Z" fill="#E28103"/>
<path d="M4.42268 20.2558C6.40982 10.6766 13.6092 3.12786 23.0233 0.751543C34.6399 -2.18085 47.0584 3.68052 52.4244 14.628C54.1402 18.1281 55 19.0684 55 25.1982C55 31.5519 54.1805 32.5949 52.1222 36.786C48.2977 44.5765 40.6984 50.0249 32.4716 50.8754C27.2621 51.4137 27.6176 50.0968 32.9652 49.0422C43.2802 47.0096 50.5418 39.8608 52.6069 29.7077C54.6658 19.584 48.8151 8.50505 38.9649 3.87568C35.843 2.4088 34.2141 2.10817 29.3792 2.10817C24.1854 2.10817 23.0643 2.34991 19.0285 4.34068C11.9837 7.81476 6.90132 14.6164 5.85683 21.9679L5.46791 24.7072L6.55955 22.3103C7.88909 19.393 7.94515 19.3307 8.77911 19.847C9.54061 20.3182 6.05304 29.9905 4.99419 30.3439C4.38854 30.5466 0 21.6043 0 20.1675C0 18.8006 1.41226 19.7258 2.48683 21.7967L3.64141 24.0224L4.42268 20.2558Z" fill="#E28103"/>
<path d="M6.42079 37.2976C5.92383 36.3991 5.50615 35.1246 5.49248 34.4658C5.45488 32.5983 6.58209 33.0551 7.50217 35.2808C8.58221 37.8927 7.68061 39.5746 6.42079 37.2976Z" fill="#E28103"/>
<path d="M12.3958 44.749C10.987 43.5616 10.5735 42.8083 11.0622 42.3186C11.551 41.829 12.387 42.1591 13.7589 43.3835C16.4761 45.8085 15.1855 47.1007 12.3958 44.749Z" fill="#E28103"/>
<path d="M23.6276 50.3878C21.8059 50.3878 19.0545 49.0257 19.4811 48.3348C19.9999 47.4931 19.8482 47.4897 22.456 48.4005C24.6632 49.1716 25.381 50.3878 23.6276 50.3878Z" fill="#E28103"/>
<path fill-rule="evenodd" clip-rule="evenodd" d="M23.7124 11.5203C23.9462 10.8636 24.4349 9.94112 24.7986 9.46997C25.7863 8.19141 28.0907 8.43521 29.7469 9.99454C31.2071 11.369 31.218 11.369 32.4368 10.0199C33.5654 8.77076 33.8142 8.74406 35.6284 9.68431C36.9839 10.3863 37.5964 11.2258 37.5964 12.3811C37.5964 13.8672 37.8226 14.013 39.5835 13.6604C41.1974 13.3364 41.7846 13.5885 42.7081 15.0012C43.6002 16.3647 43.6822 17.0468 43.0861 18.1617C42.4306 19.3889 42.5625 19.6738 44.0438 20.238C46.5593 21.1961 47.1424 24.2278 45.1252 25.8638C43.6507 27.0602 43.6275 27.2047 44.7137 28.4072C46.4506 30.3295 45.5155 33.0709 42.9296 33.6399C41.1051 34.0412 40.9151 34.3111 41.2555 36.0169C41.7648 38.5693 39.0893 40.5977 36.8191 39.3801C35.3337 38.5843 34.2141 39.376 34.1888 41.24C34.1833 41.6694 33.3692 42.2248 32.3807 42.4734C31.073 42.8021 30.1776 42.5446 29.1002 41.5311C27.757 40.2669 27.4816 40.2313 26.165 41.1558C24.0241 42.6576 21.1907 41.4414 21.1907 39.0199C21.1907 37.3694 21.0054 37.2421 19.1441 37.6153C17.4898 37.9468 16.8938 37.7146 16.0366 36.4038C15.368 35.3807 15.1404 34.1268 15.4207 33.0078C15.7912 31.528 15.5697 31.1212 14.085 30.5555C11.8066 29.6879 11.6009 26.5041 13.7357 25.1681C15.1124 24.3072 15.1206 24.221 13.953 22.928C12.3302 21.1324 13.3262 18.0891 15.7283 17.5002C17.053 17.1755 17.3914 16.7003 17.2519 15.3587C17.1446 14.3219 17.6224 13.1365 18.4509 12.3852C19.598 11.3457 20.1196 11.2683 21.5585 11.925C23.0227 12.5934 23.3528 12.5318 23.7124 11.5203ZM28.71 11.6956C29.6724 12.8571 32.5127 13.0762 33.1532 12.038C33.981 10.6958 35.5456 11.3409 35.5456 13.0249C35.5456 15.03 36.5751 15.7792 39.0701 15.5888C41.3027 15.4183 42.0122 16.3332 41.0484 18.1377C40.088 19.936 40.7613 21.4132 42.7724 21.9193C44.7868 22.4253 44.9154 23.7327 43.0649 24.8907C41.4162 25.922 41.3102 27.5944 42.7902 29.2324C44.0486 30.626 43.5482 31.8978 41.7408 31.8978C40.1508 31.8978 38.8049 33.5139 39.0674 35.1096C39.3969 37.114 38.3968 38.1721 36.921 37.3804C35.2312 36.4744 33.8504 37.0763 32.9187 39.126C31.9945 41.1585 31.0546 41.2537 29.9185 39.4308C28.9068 37.8077 27.1624 37.6564 25.9757 39.0883C24.6714 40.6627 23.9475 40.3375 22.8388 37.6783C21.9365 35.515 21.5755 35.265 19.6267 35.4527C17.4399 35.6636 17.4318 35.6519 17.6457 32.7778C17.8392 30.172 17.6895 29.8481 16.1077 29.4509C14.0269 28.9277 13.8676 27.7587 15.6551 26.1377C17.0647 24.8599 17.1344 23.4512 15.852 22.1665C14.4801 20.7921 14.9401 19.7018 17.0893 19.2286C19.1543 18.7739 19.2726 18.5822 19.408 15.4621C19.4749 13.9151 19.7292 13.7693 22.0465 13.9507C24.2271 14.1219 24.7295 13.8911 25.4028 12.4099C26.2997 10.4383 27.4604 10.1877 28.71 11.6956ZM23.3446 30.9801C20.0819 27.5012 20.8769 21.2625 24.8956 18.8075C28.2793 16.7407 31.7033 17.1084 34.7015 19.8607C36.9039 21.883 37.2546 22.6164 37.2546 25.1982C37.2546 32.9387 28.5671 36.5497 23.3446 30.9801ZM30.0395 31.6464C35.1868 30.826 37.3072 24.9468 33.7438 21.3762C29.7483 17.3741 23.2414 20.0984 23.2414 25.7734C23.2414 29.3906 26.5048 32.2093 30.0395 31.6464Z" fill="#E28103"/>
</svg>
