<svg width="157" height="120" viewBox="0 0 157 120" fill="none" xmlns="http://www.w3.org/2000/svg">
<path fill-rule="evenodd" clip-rule="evenodd" d="M71.126 0.23494C70.9029 0.36512 69.9972 1.71676 69.1136 3.23874L67.5069 6.00565L65.6479 5.14303C62.7135 3.78148 62.5451 3.7309 61.8088 3.99005C61.4422 4.11878 60.9781 4.51658 60.7775 4.87396C60.4436 5.46897 60.4663 5.74021 61.0466 8.10183L61.6801 10.6805L60.5566 11.1772C59.9389 11.4504 57.1516 12.6912 54.3629 13.9347C51.574 15.1782 49.2058 16.1954 49.1001 16.1954C48.9944 16.1954 48.9077 15.8639 48.9077 15.4586C48.9077 14.9987 48.6844 14.4983 48.3137 14.1278L47.7199 13.5338H39.229H30.7381L30.1443 14.1278C29.8176 14.4545 29.5502 14.89 29.5502 15.0957C29.5502 15.424 28.7246 15.4695 22.7751 15.4695H16V17.4053V19.341H22.7751H29.5502V30.9555V42.57H22.7751H16V44.5058V46.4415H22.7751C28.7246 46.4415 29.5502 46.487 29.5502 46.8154C29.5502 47.021 29.8176 47.4566 30.1443 47.7832L30.7381 48.3773H39.229H47.7199L48.3137 47.7832C48.6825 47.4147 48.9077 46.9119 48.9077 46.4577C48.9077 45.7621 48.938 45.7398 49.5221 46.006C49.9342 46.1937 50.0881 46.4108 49.9896 46.6661C49.1161 48.9321 48.7154 53.4775 49.1333 56.3818C49.8507 61.3703 51.8515 65.3552 55.4409 68.9446C58.5749 72.0786 61.6682 73.83 66.0021 74.9239C68.3628 75.5196 75.9107 75.5196 78.2714 74.9239C82.1746 73.9386 85.4845 72.1681 88.2751 69.5725C91.3311 66.7301 93.5614 63.0127 94.6759 58.9029C95.4296 56.1244 95.4282 50.7832 94.6732 48.0143C93.9246 45.2694 92.5782 42.5231 90.8566 40.2287C89.452 38.3571 89.3784 38.1923 89.4934 37.1724C89.6274 35.9827 89.2575 34.5785 88.5405 33.5567C88.0805 32.901 88.0803 32.8816 88.5371 32.2259C88.7919 31.8598 89.1261 31.1902 89.2795 30.738C89.82 29.1441 89.5338 27.2447 88.5371 25.8137C88.0805 25.1582 88.0805 25.1384 88.5371 24.4829C90.144 22.1754 89.8394 19.3468 87.7604 17.272C86.1774 15.6919 84.8948 15.2883 82.582 15.6425C81.6945 15.7785 80.9371 15.8635 80.8984 15.8313C80.8599 15.7993 81.4862 13.1493 82.2897 9.94248C83.0936 6.73567 83.7512 3.88576 83.7512 3.60944C83.7512 2.88208 82.6883 1.91928 81.8852 1.91928C81.4535 1.91928 80.3586 2.48646 78.8734 3.47974L76.5398 5.0402L75.0234 2.74053C74.1894 1.47576 73.3149 0.338019 73.0797 0.212195C72.5348 -0.0793768 71.6472 -0.0692141 71.126 0.23494ZM75.1635 9.50863C75.9226 9.79996 76.6245 9.66035 77.5438 9.03582C78.0507 8.69126 78.5061 8.45002 78.5559 8.49962C78.6055 8.54947 78.1889 10.3819 77.6297 12.5722L76.6132 16.5543L72.3787 17.2168C70.0498 17.5812 67.9877 17.8544 67.7963 17.8234C67.5592 17.7852 67.1212 16.4601 66.42 13.6596C65.8545 11.4001 65.4286 9.51444 65.4741 9.46919C65.5196 9.4237 65.9985 9.61195 66.5383 9.88731C67.0784 10.1629 67.8999 10.3882 68.3642 10.3882C69.3253 10.3882 69.7521 9.92458 71.3053 7.19202L72.2282 5.5689L73.4956 7.46182C74.1927 8.50301 74.9433 9.42419 75.1635 9.50863ZM63.1517 16.5497C63.423 17.6095 63.6228 18.4953 63.596 18.5183C63.5689 18.5413 62.4101 18.7383 61.0207 18.9563C59.6311 19.1743 58.4512 19.3957 58.3987 19.4482C58.346 19.5007 58.437 20.3745 58.6008 21.3898C58.8921 23.1956 58.9122 23.2329 59.529 23.1068C60.5791 22.8926 83.8185 19.341 84.171 19.341C84.3516 19.341 84.7663 19.6084 85.0929 19.9351C85.8789 20.7207 85.8789 21.8328 85.0929 22.6185C84.5209 23.1908 84.3789 23.2125 81.2215 23.2125H77.944V25.1483V27.084H81.2215C84.3789 27.084 84.5209 27.1058 85.0929 27.6781C85.4675 28.0524 85.687 28.5484 85.687 29.0198C85.687 29.4911 85.4675 29.9872 85.0929 30.3615C84.5209 30.9337 84.3789 30.9555 81.2215 30.9555H77.944V32.8913V34.827H81.2215C84.3789 34.827 84.5209 34.8488 85.0929 35.4211C85.8789 36.2067 85.8789 37.3188 85.0929 38.1045C84.5209 38.6767 84.3789 38.6985 81.2215 38.6985H77.944V40.6343V42.57H79.2857C80.9004 42.57 81.8155 43.2703 81.8155 44.5058C81.8155 44.9771 81.596 45.4732 81.2215 45.8475L80.6277 46.4415H69.8467H59.0661L53.9869 43.8996L48.9077 41.358V30.9834V20.6089L55.738 17.5701C59.4946 15.8985 62.5884 14.5517 62.6131 14.5769C62.638 14.6021 62.8802 15.4899 63.1517 16.5497ZM45.0362 30.9555V44.5058H39.229H33.4217V30.9555V17.4053H39.229H45.0362V30.9555ZM87.7074 42.3885C88.8725 43.9325 89.8496 45.8344 90.589 47.9967C91.2653 49.9745 91.3413 50.4918 91.3565 53.2166C91.3665 55.0382 91.2406 56.7707 91.0398 57.5721C89.4201 64.0372 84.3678 69.2359 77.9711 71.0192C75.7951 71.6261 70.0069 71.7575 67.5255 71.2566C58.5144 69.438 52.2834 61.4663 52.8613 52.4956C52.9861 50.5555 53.3559 48.4709 53.6261 48.1808C53.6648 48.1392 54.6857 48.6018 55.8948 49.2092L58.0929 50.313H62.2112C65.8605 50.313 66.3295 50.358 66.3295 50.7084C66.3295 53.2996 69.3451 56.1203 72.1152 56.1203C73.1322 56.1203 74.0725 57.0504 74.0725 58.056C74.0725 59.0508 73.1315 59.9918 72.1367 59.9918C71.3293 59.9918 70.201 59.0815 70.201 58.4299C70.201 58.1238 69.8499 58.056 68.2652 58.056C66.1045 58.056 66.0955 58.0655 66.614 59.7965C66.9615 60.9563 68.4699 62.7209 69.4669 63.134L70.201 63.4381V65.5863V67.7348H72.1367H74.0725V65.5863V63.4381L74.8066 63.134C76.4331 62.4603 77.944 60.0148 77.944 58.056C77.944 55.0684 75.1347 52.2488 72.1583 52.2488C71.3293 52.2488 70.201 51.3484 70.201 50.6869C70.201 50.3612 70.8756 50.313 75.4357 50.313C78.8385 50.313 81.0189 50.2099 81.6664 50.0188C82.9956 49.6261 85 47.6216 85.3927 46.2925C85.7218 45.1789 85.7521 43.6659 85.4603 42.933C85.3047 42.5427 85.4133 42.3721 86.0216 42.0517C87.0558 41.5071 87.0401 41.5039 87.7074 42.3885ZM49.9559 81.7329C48.344 82.2899 47.0932 83.2549 46.2412 84.5983C44.8896 86.7293 44.6922 89.7222 45.7539 91.9808C46.0905 92.6972 48.8298 95.9352 53.2225 100.809C59.0542 107.28 60.4567 108.703 62.0258 109.74C63.8457 110.944 66.1756 111.846 68.1442 112.11C68.6766 112.182 77.3875 112.633 87.5017 113.113C97.616 113.593 106.136 114.034 106.436 114.094C106.955 114.197 106.98 114.31 106.98 116.507C106.98 118.632 107.027 118.859 107.574 119.406L108.168 120H116.659H125.15L125.744 119.406C126.07 119.079 126.338 118.644 126.338 118.438C126.338 118.113 126.973 118.064 131.177 118.064H136.016V116.128V114.193H131.177H126.338V102.578V90.9638H131.177H136.016V89.028V87.0923H131.177C126.973 87.0923 126.338 87.0431 126.338 86.7184C126.338 86.5127 126.07 86.0772 125.744 85.7505L125.15 85.1565H116.697C106.542 85.1565 107.169 84.9687 106.98 88.0679L106.859 90.0556L105.649 89.0539C104.208 87.8605 101.135 86.309 99.1162 85.7559C96.863 85.1386 91.4524 84.9956 89.6618 85.5062C87.9874 85.9838 85.9372 87.2573 85.1682 88.2975L84.6281 89.028H77.9871C73.5564 89.028 71.0263 89.1238 70.3858 89.3157C69.8579 89.474 68.9123 90.0651 68.2843 90.6296L67.143 91.6558L62.1134 87.3778C56.048 82.2188 55.8745 82.0903 54.3685 81.6409C52.8059 81.1747 51.4922 81.202 49.9559 81.7329ZM53.8078 85.5812C54.174 85.8135 57.1884 88.29 60.5065 91.0847C65.1603 95.0044 66.5778 96.3284 66.7057 96.8763C66.9448 97.9 69.1392 99.9904 70.35 100.348C71.0338 100.55 73.5939 100.643 78.5165 100.643H85.687V98.7068V96.771H78.538H71.3888L70.795 96.177C70.0091 95.3913 70.0091 94.2792 70.795 93.4935L71.3888 92.8995H78.9094C86.409 92.8995 86.4315 92.898 86.8968 92.3551C89.5536 89.2557 90.0117 89.0314 93.6937 89.0295C97.594 89.027 101.21 90.2587 103.664 92.425C104.223 92.9191 105.199 94.1957 105.831 95.2616L106.98 97.1995V103.731V110.262L105.952 110.168C105.386 110.116 96.9748 109.693 87.2598 109.229C77.5447 108.765 68.9427 108.266 68.1442 108.121C66.1659 107.76 64.2662 106.818 62.8524 105.497C61.0357 103.8 49.8096 91.2698 49.3312 90.4055C49.0982 89.9847 48.9082 89.2032 48.9087 88.6689C48.9111 86.1266 51.7985 84.307 53.8078 85.5812ZM122.466 102.578V116.128H116.659H110.852V102.578V89.028H116.659H122.466V102.578Z" fill="#E28103"/>
<path d="M136.016 116.128V118.064H157V87.0923H136.016V89.028V90.9638H153.5V114.193H136.016V116.128Z" fill="#E28103"/>
<path d="M16 17.4053V15.4695V15.4586H0V46.4415H16V44.5058V42.57L4 42.3885V19.341H16V17.4053Z" fill="#E28103"/>
</svg>
