<svg width="35" height="35" viewBox="0 0 35 35" fill="none" xmlns="http://www.w3.org/2000/svg">
<path d="M6.39177 0C2.85155 0 0.000976562 2.85057 0.000976562 6.39078V28.6092C0.000976562 32.1494 2.85155 35 6.39177 35H18.434V21.3172H14.8158V16.3909H18.434V12.1822C18.434 8.87556 20.5717 5.83953 25.4963 5.83953C27.4902 5.83953 28.9646 6.03094 28.9646 6.03094L28.8486 10.6313C28.8486 10.6313 27.3449 10.6171 25.7041 10.6171C23.9282 10.6171 23.6435 11.4353 23.6435 12.7936V16.391H28.9897L28.7568 21.3172H23.6435V35H28.6102C32.1504 35 35.001 32.1494 35.001 28.6092V6.39081C35.001 2.8506 32.1504 3.49999e-05 28.6102 3.49999e-05H6.39173L6.39177 0Z" fill="#E28103"/>
</svg>
