<svg width="35" height="35" viewBox="0 0 35 35" fill="none" xmlns="http://www.w3.org/2000/svg">
<path d="M6.85967 0C3.08793 0 0.000976562 3.08688 0.000976562 6.85869V28.1424C0.000976562 31.9142 3.08786 35 6.85967 35H28.1434C31.9152 35 35.001 31.9142 35.001 28.1424V6.85869C35.001 3.08695 31.9152 0 28.1434 0H6.85967ZM8.58473 5.7757C10.3932 5.7757 11.5071 6.96293 11.5415 8.52353C11.5415 10.0497 10.3931 11.2703 8.54975 11.2703H8.51582C6.74177 11.2703 5.59513 10.0497 5.59513 8.52353C5.59513 6.96297 6.77647 5.7757 8.5847 5.7757H8.58473ZM24.1693 13.0697C27.6474 13.0697 30.2547 15.343 30.2547 20.2281V29.3478H24.969V20.8396C24.969 18.7015 24.204 17.2429 22.2912 17.2429C20.8309 17.2429 19.9605 18.226 19.5783 19.1758C19.4387 19.5156 19.4044 19.9901 19.4044 20.4655V29.3478H14.1187C14.1187 29.3478 14.1881 14.9351 14.1187 13.4427H19.4055V15.6951C20.1079 14.6113 21.3643 13.0697 24.1693 13.0697V13.0697ZM5.9069 13.4439H11.1926V29.3479H5.9069V13.4439Z" fill="#E28103"/>
</svg>
