<svg width="162" height="126" viewBox="0 0 162 126" fill="none" xmlns="http://www.w3.org/2000/svg">
<path d="M69.8418 64.8835H97.5201V70.9296H69.8418V64.8835ZM69.8418 46.2698H113.115V52.3159H69.8418V46.2698ZM69.8418 16.0853H113.618V22.1314H69.8418V16.0853ZM69.8418 31.1776H113.618V37.2237H69.8418V31.1776ZM69.8418 90.0465V84.0004H90.9801V90.0465H69.8418Z" fill="#E28103" stroke="white" stroke-width="1.5"/>
<path d="M128.711 7.78991V44.7697H122.665V7.78916V7.03916H121.915H61.5461H60.7961V7.78916V98.3426V99.0926H61.5461H90.9806V105.139H61.5469C59.7448 105.137 58.017 104.42 56.7427 103.146L56.2124 103.676L56.7427 103.146C55.4686 101.872 54.7519 100.144 54.75 98.3422V7.78956C54.7519 5.9876 55.4686 4.25997 56.7427 2.98578C58.0169 1.7116 59.7446 0.994934 61.5465 0.993042H121.915C123.717 0.994934 125.444 1.7116 126.718 2.98578L127.249 2.45545L126.718 2.98579C127.993 4.26005 128.709 5.98782 128.711 7.78991Z" fill="#E28103" stroke="white" stroke-width="1.5"/>
<path fill-rule="evenodd" clip-rule="evenodd" d="M123.872 71.544C114.246 75.5609 110.901 85.7652 115.326 95.5393C119.507 104.769 128.688 107.783 138.209 103.05C150.553 96.9108 149.597 77.2187 136.681 71.5635C131.603 70.0026 127.566 70.0026 123.872 71.544ZM143.333 92.2613C145.091 87.414 142.614 79.2363 138.465 76.1906C134.97 73.6261 126.524 73.2842 122.801 75.5565C118.798 77.9997 115.709 85.6034 116.735 90.4942C117.903 96.0684 125.087 102.416 130.227 102.416C135.03 102.416 141.455 97.4384 143.333 92.2613Z" fill="#E28103"/>
<path fill-rule="evenodd" clip-rule="evenodd" d="M128.941 58.0319C127.241 62.7129 124.514 63.0665 122.045 58.9251C120.344 56.0728 119.999 56.0353 115.884 58.2656C112.132 60.2996 111.648 61.2214 112.417 64.8921C113.467 69.8998 111.507 71.7314 107.502 69.4846C105.063 68.1177 104.328 68.5673 102.308 72.6577C100.031 77.2727 100.061 77.5065 103.262 80.0366C106.077 82.2609 106.287 83.0013 104.674 85.0382C103.634 86.3527 101.894 87.4275 100.811 87.4275C98.7583 87.4275 98.211 91.4609 99.7087 95.5483C100.186 96.8523 102.063 97.9195 103.881 97.9195C107.972 97.9195 109.02 100.679 106.485 104.777C104.777 107.539 104.962 108.284 108.156 111.427C110.93 114.158 112.14 114.56 113.449 113.188C116.536 109.954 120.076 111.12 120.561 115.531C120.94 118.987 121.78 119.729 125.769 120.131C129.538 120.51 130.682 119.987 131.274 117.612C132.353 113.29 135.627 112.545 137.993 116.086C139.918 118.965 140.279 119.004 144.383 116.781C147.781 114.939 148.671 113.523 148.46 110.294C148.222 106.656 148.661 106.198 152.132 106.447C155.214 106.668 156.564 105.735 158.322 102.173C160.449 97.8625 160.411 97.4983 157.599 95.4343C153.672 92.552 153.848 90.6621 158.203 88.9264C161.905 87.4515 162.341 86.038 160.877 80.3078C160.296 78.0371 158.927 76.9355 156.688 76.9355C152.28 76.9355 150.874 74.23 153.728 71.2383C155.843 69.0215 155.72 68.4879 152.21 64.6493C148.645 60.7508 148.218 60.6338 145.814 62.9151C142.595 65.9668 138.803 63.3783 139.922 58.8937C140.385 57.0351 139.936 55.944 138.702 55.9305C137.626 55.9201 135.309 55.5064 133.553 55.0132C131.031 54.3058 130.062 54.9398 128.941 58.0319ZM139.728 67.1374C137.694 65.7419 136.031 63.3288 136.031 61.7744C136.031 58.1022 132.187 58.1067 131.074 61.7819C129.861 65.7869 123.794 66.6682 120.855 63.2658C117.895 59.8364 115.507 61.166 116.582 65.6476C117.607 69.9298 113.009 74.6422 108.903 73.5166C105.002 72.4479 103.745 75.0048 106.567 78.2724C110.026 82.2773 109.426 87.2176 105.24 89.2171C100.892 91.2915 101.327 94.006 106.103 94.6131C110.879 95.2186 113.586 101.31 110.513 104.531C107.42 107.771 110.438 111.387 113.798 108.465C117.024 105.66 124.122 108.963 123.979 113.203C123.838 117.388 127.427 118.562 128.404 114.65C129.477 110.348 137.024 108.711 139.491 112.246C141.817 115.579 145.038 113.672 143.828 109.676C142.555 105.477 146.949 100.722 151.095 101.812C155.053 102.854 157.42 99.5877 154.111 97.6482C150.624 95.6023 151 87.357 154.627 86.3633C158.255 85.3695 158.386 81.4321 154.792 81.4321C153.308 81.4321 151.005 79.6889 149.673 77.5575C147.472 74.0382 147.454 73.4476 149.488 71.0929C151.2 69.1099 151.332 68.0877 150.049 66.7432C148.766 65.3987 147.79 65.5365 145.897 67.3307C143.65 69.4621 143.087 69.4441 139.728 67.1374Z" fill="#E28103"/>
<path d="M12.0835 72L18.3863 75.6421L17.2489 76.7787L18.4034 78.7739L22.4074 85.6935L23.4263 87.4543L25.4391 87.1593L26.5453 86.9971L33.1758 93.6238H30.7363L33.7413 96.625L30.6506 99.7127C30.3154 99.6873 29.9791 99.6759 29.6424 99.6785C23.1466 99.6853 18 104.83 18 111.328C18 117.831 23.1535 122.978 29.6554 122.978C36.1574 122.978 41.3109 117.831 41.3109 111.328C41.3109 110.791 41.2731 110.268 41.2035 109.758L43.4083 107.555C43.6398 107.589 43.8743 107.606 44.1092 107.604C44.2412 108.876 44.7311 110.255 45.874 111.397L45.8801 111.403L55.2323 120.695C55.2333 120.696 55.2344 120.697 55.2354 120.698C58.2969 123.754 63.2764 123.767 66.3545 120.738C69.772 117.544 69.8603 112.507 66.7266 109.372C66.7255 109.371 66.7244 109.37 66.7232 109.369L57.4249 100.021L57.4186 100.015C56.3526 98.9497 54.8775 98.2321 53.3123 98.1458L53.5774 97.8809L53.5833 97.875C54.8833 98.3838 56.2629 98.6894 57.6778 98.6761C59.9644 98.6546 62.1355 97.7963 63.9245 96.0275C65.5305 94.5209 67.0003 92.1726 67.9223 89.8022C68.8158 87.5047 69.4877 84.4324 68.4977 81.7468L66.847 77.2697L63.5277 80.6977L59.5828 84.7716L56.3765 81.5686L60.5027 77.448L63.8775 74.0778L59.3783 72.4952C58.6413 72.236 57.9452 72.1207 57.2834 72.0644L57.2775 72.0639C54.8883 71.8655 52.3853 72.5505 50.3369 73.4221C48.2615 74.3052 46.2877 75.5362 44.9253 76.8008L44.8848 76.8384L44.8457 76.8775C42.9593 78.7627 42.098 81.0603 42.1581 83.4681C42.195 84.9516 42.5772 86.3924 43.1689 87.7449L41.6924 89.2211L33.0036 80.5382L33.1643 79.433L33.4569 77.421L31.6965 76.4038L28.1583 74.3592L30.5191 72H23.2729H23.2712H12.0835ZM28.8085 110.483L29.9462 110.181L30.803 111.038L30.5024 112.17L29.3658 112.471L28.508 111.614L28.8085 110.483Z" fill="#E28103" stroke="white" stroke-width="6"/>
</svg>
