<svg width="44" height="35" viewBox="0 0 44 35" fill="none" xmlns="http://www.w3.org/2000/svg">
<path d="M13.5398 35C29.8046 35 38.7021 21.5311 38.7021 9.87134C38.7021 9.49444 38.7021 9.11215 38.6859 8.73525C40.4182 7.48201 41.9132 5.93042 43.101 4.15318C41.4829 4.8662 39.7682 5.33614 38.0125 5.54772C39.8618 4.44296 41.2469 2.70471 41.9103 0.656062C40.1728 1.6848 38.2711 2.40697 36.2885 2.79095C34.9556 1.37224 33.1918 0.432391 31.2703 0.116976C29.3488 -0.198438 27.3768 0.128186 25.6599 1.04626C23.9429 1.96433 22.5768 3.42261 21.7731 5.19521C20.9694 6.96782 20.773 8.95582 21.2143 10.8513C17.6982 10.6751 14.2585 9.76222 11.1182 8.17189C7.9779 6.58156 5.20715 4.34929 2.98565 1.61986C1.85789 3.56651 1.51372 5.86917 2.02303 8.06023C2.53234 10.2513 3.85696 12.1665 5.72789 13.4169C4.3259 13.3693 2.95473 12.9931 1.72498 12.3185V12.4397C1.72739 14.4789 2.43426 16.4548 3.72609 18.0333C5.01793 19.6119 6.81549 20.6962 8.81493 21.1031C8.056 21.312 7.27203 21.4162 6.48483 21.4126C5.92988 21.4143 5.37603 21.3629 4.83087 21.2592C5.39598 23.0146 6.49634 24.5495 7.97784 25.6487C9.45933 26.7479 11.2477 27.3565 13.0926 27.3893C9.95857 29.8494 6.08724 31.1836 2.1021 31.1771C1.3999 31.1801 0.698181 31.1396 0.000976562 31.056C4.04568 33.6331 8.743 35.0015 13.5398 35Z" fill="#E28103"/>
</svg>
